<?xml version="1.0" encoding="utf-8"?>
<!-- Generator: Adobe Illustrator 19.1.0, SVG Export Plug-In . SVG Version: 6.00 Build 0)  -->
<svg version="1.0" id="Layer_1" xmlns="http://www.w3.org/2000/svg" xmlns:xlink="http://www.w3.org/1999/xlink" x="0px" y="0px"
	 viewBox="0 0 800 600" enable-background="new 0 0 800 600" xml:space="preserve">
<path fill="#5C8E9D" d="M800,224l-27,12h-20.7l-18.7,14.7H703l-11.3,3.3h-7.3l-12,8.7l-30,7.3l-14.7,3.3l-20,13.3l-52,21.3l-32,4.7
	l-12.7,6h-26.7l-20.7,6.7l-30,8.7l-22-8c0,0-12.7-4.7-14.7-4.7s-23.3-0.7-23.3-0.7l-11.3,7.3c0,0-31.3,5.3-34.7,6
	c-3.3,0.7-35.3,0-35.3,0s-2.7,8.7-5.3,9.3c-2.7,0.7-18.7,0-18.7,0l-10,0.3l-20.7,4.4c0,0-12.7,5.3-14.7,5.3s-18-6-20.7-6.7
	c-2.7-0.7-5.3-0.7-12.7,2.7c-7.3,3.3-36,10.7-36,10.7s-9.3,8-12.7,8.7c-3.3,0.7-26-6.7-26-6.7l-22-2.7l-26.7,9.4l-22.7-7.4l-22-2.7
	l-21.7-4V600h800V224z"/>
</svg>
