<?xml version="1.0" encoding="utf-8"?>
<!-- Generator: Adobe Illustrator 19.1.0, SVG Export Plug-In . SVG Version: 6.00 Build 0)  -->
<svg version="1.0" id="Layer_1" xmlns="http://www.w3.org/2000/svg" xmlns:xlink="http://www.w3.org/1999/xlink" x="0px" y="0px"
	 viewBox="0 0 800 600" enable-background="new 0 0 800 600" xml:space="preserve">
<polygon points="0,529.3 9.7,525.3 20.3,499.3 31.7,519.3 45,487.3 57.7,512.7 70.3,508.3 80.3,480.7 92.3,505 103.7,505 
	112.3,477.3 127,509.3 139,477.3 155,496 169,452.7 181.7,472 197.7,446.7 209,468.7 222.3,468 235,442.7 249,468 261,440 
	275,458.7 289.7,443.3 299.7,465.3 313.7,434 333,460 347.7,430 363.7,456.7 379,430 391,452 405,450.7 410.3,416 429.7,433.3 
	444.3,402 463.7,432 474.3,435.3 484.3,402 497,438.7 509.7,438.7 522.3,418 533.7,441.3 545,446 555,441.3 565.7,412 577.7,435.3 
	587,430.7 595.7,412 606.3,426 617.7,431.3 627.7,406 638.3,423 651.7,394.7 667.7,412.7 685.7,383.3 707.7,402.7 718.3,375.7 
	733.7,402 750.3,371.3 761,390 772.3,371.3 782.3,386 800,360.7 800,600 0,600 "/>
</svg>
